<svg xmlns="http://www.w3.org/2000/svg" width="99" height="126"><path fill="#000101" d="M54 22.5l-54 27v54L27 117l54-27V36L54 22.5zm24 65.65l-48 24v-47.3l48-24v47.3zm-22 7.52c10.74-5.56 19.371-17.38 19.679-29.52.272-10.59-9.038-15.351-19.679-9.84-10.74 5.56-19.372 17.38-19.68 29.52-.271 10.59 9.03 15.35 19.68 9.84zm-2.521-34.448c.64-.986 1.44-1.715 2.36-2.182.938-.458 1.73-.526 2.37-.195.65.333.969.963.969 1.883 0 .93-.318 1.888-.969 2.868-.64.988-1.432 1.706-2.37 2.174-.911.457-1.701.516-2.35.192-.66-.331-.989-.962-.989-1.892 0-.92.329-1.869.979-2.848zm-3.65 30.928c1.64-.94 2.569-1.531 2.811-1.79.23-.25.369-.591.439-1.001.131-.871.211-2.981.211-6.311 0-4.579-.061-7.148-.19-7.72-.06-.259-.16-.397-.29-.42-.289-.049-1.289.353-2.98 1.181V74.43c2.211-1.341 3.87-2.41 5-3.24 1.121-.822 2.35-1.832 3.68-3.03l.521.03a92.203 92.203 0 0 0-.26 6.539v7.451c0 2.54.069 4.02.169 4.419.061.23.18.361.351.35.389 0 1.359-.36 2.88-1.06v1.71c-2.08.979-4.33 2.08-6.771 3.299a216.248 216.248 0 0 0-5.569 2.872v-1.62z"/></svg>