<svg xmlns="http://www.w3.org/2000/svg" width="99" height="126"><path d="M0 35.92v54L54.21 117l27-13.5v-54l-54-27L.21 36 0 35.92zm54.21 28.73l24-12v49l-24 12v-49zM4.84 59.43L49.37 81.7v27.68L4.84 87.11V59.43zm13.81 1.561V50.62l30.72 15.362V76.34L18.65 60.991zM4.84 43.73l9.361 4.681v10.35L4.84 54.07V43.73zm6.8 11.85l-2.28-3.66-2.119 1.29-.521-.86 2.109-1.28-2.269-3.64.85-.53 2.282 3.66 2.108-1.279.52.849-2.1 1.27 2.27 3.65zm-2.8 28.99v-3.35l36.53 18.262v3.429L8.84 84.641zm0-17.35l21.251 10.62v3.35L8.84 70.57zm0 7l21.251 10.62v3.35L8.84 77.57zm24.12 16.12V77l12.41 6.17v13.5L32.96 90.5z" fill="#000101"/></svg>