<svg xmlns="http://www.w3.org/2000/svg" width="99" height="126" viewBox="0 0 99 126"><path d="M0 35.92v54l54.21 27.08 27-13.5v-54l-54-27-27 13.5-.21-.08zm54.21 28.73l24-12v49l-24 12v-49zm-49.37-5.22l44.53 22.27v27.68l-44.53-22.27v-27.68zm13.81 1.561v-10.371l30.72 15.362v10.358l-30.72-15.349zm-13.81-17.261l9.361 4.681v10.35l-9.361-4.691v-10.34zm6.8 11.85l-2.28-3.66-2.119 1.29-.521-.86 2.109-1.28-2.269-3.64.85-.53 2.282 3.66 2.108-1.279.52.849-2.1 1.27 2.27 3.65zm-2.8 28.99v-3.35l36.53 18.262v3.429l-36.53-18.27zm0-17.35l21.251 10.62v3.35l-21.251-10.62zm0 7l21.251 10.62v3.35l-21.251-10.62zm24.12 16.12v-13.34l12.41 6.17v13.5l-12.41-6.17z" fill="#000101"/></svg>