<svg xmlns="http://www.w3.org/2000/svg" width="99" height="126" viewBox="0 0 99 126"><path d="M0 36v54l54 27 27-13.5v-54l-54-27-27 13.5zm54 77.74v-48.941l24-12.109v48.95l-24 12.1zm-48.68-47.59c-.27-10.59 9.04-15.351 19.68-9.84 10.74 5.56 19.371 17.38 19.68 29.52.271 10.59-9.03 15.35-19.68 9.84-10.74-5.559-19.37-17.38-19.68-29.52zm17.17-2.693c.648.978 1.439 1.706 2.35 2.153.939.467 1.73.535 2.37.193.651-.331.97-.972.97-1.901 0-.92-.318-1.869-.97-2.849-.64-.977-1.431-1.697-2.37-2.174-.92-.447-1.721-.515-2.361-.174-.649.333-.979.955-.979 1.875 0 .93.33 1.89.99 2.877zm5.449 26.074c-.1-.499-.17-2.049-.17-4.589v-7.451c0-2 .092-4.089.26-6.279l-.52-.549c-1.33-.127-2.561-.344-3.68-.639-1.131-.299-2.791-.883-5-1.746v1.659c1.689.856 2.689 1.452 2.979 1.79.131.152.23.392.291.71.129.7.19 3.331.19 7.91 0 3.33-.08 5.361-.21 6.102-.07.339-.211.541-.44.561-.241.019-1.171-.318-2.81-1.012v1.621c1.609.743 3.46 1.628 5.568 2.681 2.441 1.215 4.691 2.357 6.771 3.453v-1.711c-1.52-.817-2.49-1.423-2.88-1.812-.169-.16-.288-.409-.349-.699z" fill="#000101"/><text transform="translate(-117 -18)" fill="#F80071" font-family="'MyriadPro-Regular'" font-size="72">Private Use</text></svg>