<svg xmlns="http://www.w3.org/2000/svg" width="117" height="126" viewBox="0 0 117 126"><path fill="#000101" d="M45 22.5l-27 13.5v27l-9-4.5-9 4.5v18l72 36 27-13.5v-54l-54-27zm0 3.361l48.93 24.469-23.639 11.82-48.931-24.47 23.64-11.819zm-19 23.089l16 8v36.11l-16-8v-36.11zm28.33 24.52l-6.33-3.16v-10.36l6.33 3.17v10.35zm0 3.36v8.68l-6.33-3.16v-8.68l6.33 3.16zm-6.33 8.87l6.33 3.161v10.369l-6.33-3.17v-10.36zm16 18.36l-6.67-3.33v-10.369l6.67 3.339v10.36zm0-13.71l-6.67-3.34v-8.68l6.67 3.34v8.68zm-6.67-15.38v-10.35l6.67 3.33v10.36l-6.67-3.34zm-39.33-2.97l-14.62-7.31 5.63-2.83 8.99 4.49v5.65zm78 29.65l-24 12v-49l24-12v49z"/></svg>