<svg xmlns="http://www.w3.org/2000/svg" width="117" height="126"><path fill="#000101" d="M45 22.5L18 36v31.5L9 63l-9 4.5V81l71.79 35.93v-.03l.21.1 27-13.5v-54l-54-27zm24 89.65l-66-33V68.984L21 78V40.85l48 24v47.3zm.711-50L20.779 37.682 44.42 25.861 93.35 50.33 69.711 62.15zM54.332 73.47L48 70.311v-10.36l6.332 3.169v10.35zM64 67.951l-6.668-3.331v10.35L64 78.311v-10.36zm0 13.719l-6.668-3.34v8.68L64 90.351V81.67zm-9.668-4.84L48 73.67v8.68l6.332 3.159V76.83zM64 93.7l-6.668-3.339v10.37l6.668 3.33V93.7zm-9.668-4.839L48 85.7v10.36l6.332 3.17V88.861zM26 48.95v36.11l16 8V56.95l-16-8z"/></svg>