<svg xmlns="http://www.w3.org/2000/svg" width="99" height="126" viewBox="0 0 99 126"><path fill="#000101" d="M54 22.358l-54 27v54l27 13.5 54-27v-54l-27-13.5zm0 3.35l23.8 11.75-48.92 24.46-23.821-11.74 48.941-24.47zm-51 75.79v-48.99l24 11.82v49.029l-24-11.859zm74.27-44.379l-10.06 14.399 10.06 5.94v4.64l-12.36-7.3-8.861 12.679-8-5.17-17.749 24.621v-6.831l14.39-19.97-14.39-9.298v-4.761l24.679 15.96 22.291-31.889v6.98z"/><text transform="translate(-234 -18)" fill="#F80071" font-family="'MyriadPro-Regular'" font-size="72">Private Use</text></svg>