<svg xmlns="http://www.w3.org/2000/svg" width="117" height="126" viewBox="0 0 117 126"><path fill="#000101" d="M.33 49.27v54l27 13.5 72-36v-18l-9-4.5-9 4.5v-27l-27-13.5-54 27zm77.639-11.82l-48.93 24.47-23.639-11.82 48.93-24.47 23.639 11.82zm-4.639 47.38l-16 8v-36.109l16-8v36.109zm-28.33-21.94l6.33-3.169v10.359l-6.33 3.16v-10.35zm6.33 10.55v8.68l-6.33 3.16v-8.68l6.33-3.16zm0 22.39l-6.33 3.17v-10.37l6.33-3.16v10.36zm-16-2.36l6.67-3.34v10.37l-6.67 3.33v-10.36zm0-12.03l6.67-3.34v8.68l-6.67 3.34v-8.68zm0-3.36v-10.359l6.67-3.331v10.35l-6.67 3.34zm46-11.96l8.99-4.49 5.63 2.83-14.62 7.31v-5.65zm-78-13.7l24 12v49l-24-12v-49z"/></svg>