<svg xmlns="http://www.w3.org/2000/svg" width="99" height="126"><path d="M54 22.5l-54 27v54L27 117l54-27V36L54 22.5zM3 101.64V52.69l24 12.109v48.94L3 101.64zm53-5.97c-10.65 5.51-19.951.75-19.68-9.84.309-12.14 8.94-23.96 19.68-29.52 10.64-5.511 19.95-.75 19.68 9.84-.31 12.14-8.94 23.961-19.68 29.52zM28.549 62.22L5.01 50.35 54 25.85l23.549 11.87-49 24.5zm24.941 3.74c.648.33 1.439.27 2.35-.19.939-.471 1.73-1.19 2.37-2.17.651-.98.97-1.94.97-2.87 0-.92-.318-1.55-.97-1.88-.64-.339-1.431-.271-2.37.19-.92.471-1.721 1.2-2.361 2.18-.649.98-.979 1.93-.979 2.85 0 .93.33 1.56.99 1.89zm5.449 20.64c-.1-.4-.17-1.88-.17-4.42v-7.45c0-2 .092-4.181.261-6.54l-.521-.031a47.249 47.249 0 0 1-3.68 3.031c-1.131.83-2.79 1.899-5 3.241v1.659c1.689-.829 2.689-1.229 2.979-1.18.13.021.23.161.29.42.13.57.19 3.141.19 7.72 0 3.33-.08 5.44-.21 6.311-.07.41-.21.75-.44 1-.241.259-1.171.85-2.81 1.79v1.62c1.609-.86 3.46-1.82 5.568-2.87a327.84 327.84 0 0 1 6.771-3.3v-1.71c-1.521.7-2.49 1.06-2.88 1.06-.168.009-.287-.121-.348-.351z" fill="#000101"/></svg>