<svg xmlns="http://www.w3.org/2000/svg" width="117" height="126"><path fill="#000101" d="M0 49.5v54L27 117l72-36V63l-9-4.5-9 4.5V36L54 22.5l-54 27zm77.639-11.82l-48.93 24.47L5.07 50.33 54 25.86l23.639 11.82zM73 85.06l-16 8V56.951l16-8V85.06zM44.67 63.12L51 59.951V70.31l-6.33 3.16V63.12zM51 73.67v8.68l-6.33 3.16v-8.68L51 73.67zm0 22.39l-6.33 3.17V88.86L51 85.7v10.36zM35 93.7l6.67-3.34v10.37L35 104.06V93.7zm0-12.03l6.67-3.34v8.68L35 90.35v-8.68zm0-3.36V67.951l6.67-3.331v10.35L35 78.31zm46-11.96l8.99-4.49 5.63 2.83L81 72v-5.65zM3 52.65l24 12v49l-24-12v-49z"/></svg>