<svg xmlns="http://www.w3.org/2000/svg" width="99" height="126"><path d="M81 36.031V36L54 22.5l-54 27v54L27 117l.21-.1v.02l54-27v-54l-.21.111zM27 113.65l-24-12v-49l24 12v49zm49.37-26.54l-44.53 22.27V81.7l44.53-22.27v27.68zM31.84 76.34V65.982L62.56 50.62v10.371L31.84 76.34zm44.53-22.27l-9.361 4.69V48.41l9.361-4.68v10.34zm-47.66 8.08L5.059 50.32 54 25.85l23.65 11.83-48.94 24.47zm40.86-6.57l2.28-3.66 2.119 1.29.521-.86-2.11-1.28 2.27-3.64-.85-.53-2.282 3.66-2.108-1.279-.52.849 2.1 1.27-2.27 3.65zm2.8 28.99v-3.35L35.84 99.482v3.429l36.53-18.27zm0-17.35L51.119 77.84v3.35L72.37 70.57zm0 7L51.119 84.84v3.35L72.37 77.57zM48.25 90.34V77l-12.41 6.17v13.5l12.41-6.17z" fill="#000101"/></svg>