<svg xmlns="http://www.w3.org/2000/svg" width="99" height="126"><path fill="#000101" d="M25 95.67c10.65 5.51 19.951.75 19.68-9.84-.309-12.14-8.94-23.96-19.68-29.52-10.641-5.511-19.951-.75-19.68 9.84.309 12.14 8.94 23.961 19.68 29.52zm-2.52-36.96c.639-.35 1.439-.28 2.359.17.939.48 1.73 1.2 2.37 2.169.65.981.97 1.93.97 2.85 0 .93-.319 1.57-.97 1.9-.64.35-1.431.28-2.37-.19-.91-.45-1.701-1.181-2.35-2.15-.66-.99-.99-1.95-.99-2.88.001-.919.331-1.539.981-1.869zm-3.65 27.288c1.639.694 2.568 1.031 2.81 1.012.23-.021.37-.222.44-.562.13-.741.21-2.771.21-6.101 0-4.579-.061-7.209-.19-7.91-.06-.318-.16-.557-.29-.71-.29-.338-1.29-.934-2.979-1.79v-1.659c2.21.863 3.869 1.447 5 1.746 1.12.295 2.35.512 3.68.639l.521.548a81.792 81.792 0 0 0-.261 6.279v7.451c0 2.54.07 4.09.17 4.589.061.29.18.539.351.699.39.389 1.359.995 2.88 1.812v1.711a331.604 331.604 0 0 0-6.771-3.453 201.616 201.616 0 0 0-5.568-2.681v-1.62zM27 22.5L0 36v54l54 27 27-13.5v-54l-54-27zm24 89.65l-48-24v-47.3l48 24v47.3zm1.45-49.93l-49-24.5L27 25.85l48.99 24.5-23.54 11.87z"/><text transform="translate(-117 -18)" fill="#F80071" font-family="'MyriadPro-Regular'" font-size="72">Private Use</text></svg>