<svg xmlns="http://www.w3.org/2000/svg" width="99" height="126" viewBox="0 0 99 126"><path d="M81 36.031v-.031l-27-13.5-54 27v54l27 13.5.21-.1v.02l54-27v-54l-.21.111zm-54 77.619l-24-12v-49l24 12v49zm49.37-26.54l-44.53 22.27v-27.68l44.53-22.27v27.68zm-44.53-10.77v-10.358l30.72-15.362v10.371l-30.72 15.349zm44.53-22.27l-9.361 4.69v-10.35l9.361-4.68v10.34zm-47.66 8.08l-23.651-11.83 48.941-24.47 23.65 11.83-48.94 24.47zm40.86-6.57l2.28-3.66 2.119 1.29.521-.86-2.11-1.28 2.27-3.64-.85-.53-2.282 3.66-2.108-1.279-.52.849 2.1 1.27-2.27 3.65zm2.8 28.99v-3.35l-36.53 18.262v3.429l36.53-18.27zm0-17.35l-21.251 10.62v3.35l21.251-10.62zm0 7l-21.251 10.62v3.35l21.251-10.62zm-24.12 16.12v-13.34l-12.41 6.17v13.5l12.41-6.17z" fill="#000101"/></svg>