<svg xmlns="http://www.w3.org/2000/svg" width="99" height="126"><path fill="#000101" d="M54 22.358l-54 27v54l27 13.5 54-27v-54l-27-13.5zm0 3.35l23.8 11.75-48.92 24.46-23.821-11.74L54 25.708zm-51 75.79v-48.99l24 11.82v49.029L3 101.498zm74.27-44.379L67.21 71.518l10.06 5.94v4.64l-12.36-7.3-8.861 12.679-8-5.17L30.3 106.928v-6.831l14.39-19.97-14.39-9.298v-4.761l24.679 15.96L77.27 50.139v6.98z"/><text transform="translate(-234 -18)" fill="#F80071" font-family="'MyriadPro-Regular'" font-size="72">Private Use</text></svg>