<?xml version="1.0" encoding="utf-8"?>
<!-- Generator: Adobe Illustrator 16.0.0, SVG Export Plug-In . SVG Version: 6.00 Build 0)  -->
<!DOCTYPE svg PUBLIC "-//W3C//DTD SVG 1.1//EN" "http://www.w3.org/Graphics/SVG/1.1/DTD/svg11.dtd">
<svg version="1.1" xmlns="http://www.w3.org/2000/svg" xmlns:xlink="http://www.w3.org/1999/xlink" x="0px" y="0px" width="126px"
	 height="126px" viewBox="0 0 126 126" enable-background="new 0 0 126 126" xml:space="preserve">
<g id="BG">
</g>
<g id="Base">
</g>
<g id="Icons_1_">
</g>
<g id="Dark">
	<g>
		<path fill="#000101" d="M0,76.5v27L27,117l54-27l27-40.5H54L0,76.5z M18.01,70.861L38.3,81L27,86.65L6.71,76.5L18,70.861H18.01z
			 M81,84.59V63l14.65-7.172v6.786L81,84.59z M88.994,52.5l3.152,1.577l-14.492,7.25L60,52.5H88.994z M54,52.85L74.3,63L45.01,77.65
			L24.72,67.5L54,52.85z M42,106.15V82.5l6-3v23.649L42,106.15z M3,78l24,12.004v23.646L3,101.64V78z"/>
	</g>
</g>
<g id="Bright">
</g>
<g id="Plain_1_">
</g>
<g id="Icons">
</g>
</svg>
