<?xml version="1.0" encoding="utf-8"?>
<!-- Generator: Adobe Illustrator 16.0.0, SVG Export Plug-In . SVG Version: 6.00 Build 0)  -->
<!DOCTYPE svg PUBLIC "-//W3C//DTD SVG 1.1//EN" "http://www.w3.org/Graphics/SVG/1.1/DTD/svg11.dtd">
<svg version="1.1" xmlns="http://www.w3.org/2000/svg" xmlns:xlink="http://www.w3.org/1999/xlink" x="0px" y="0px" width="126px"
	 height="126px" viewBox="0 0 126 126" enable-background="new 0 0 126 126" xml:space="preserve">
<g id="BG">
</g>
<g id="Base">
</g>
<g id="Icons_1_">
</g>
<g id="Dark">
	<path fill="#000101" d="M37,8.5v36l-36-18v72l36,18l72-36v-36L37,8.5z M37,113.12l-9-4.49V89.5l-18-9v19.14l-6-3V31.35l33,16.48
		V113.12z M40,13.35l33,16.46V62.5L40,46V13.35z M47,98v-9l16-8l0.03,9L47,98z M81,81l-16,8v-9l16-8V81z M99,72l-16,8v-9l16-8V72z"
		/>
</g>
<g id="Bright">
</g>
<g id="Plain_1_">
</g>
<g id="Icons">
</g>
</svg>
