<?xml version="1.0" encoding="utf-8"?>
<!-- Generator: Adobe Illustrator 16.0.0, SVG Export Plug-In . SVG Version: 6.00 Build 0)  -->
<!DOCTYPE svg PUBLIC "-//W3C//DTD SVG 1.1//EN" "http://www.w3.org/Graphics/SVG/1.1/DTD/svg11.dtd">
<svg version="1.1" xmlns="http://www.w3.org/2000/svg" xmlns:xlink="http://www.w3.org/1999/xlink" x="0px" y="0px" width="99px"
	 height="126px" viewBox="0 0 99 126" enable-background="new 0 0 99 126" xml:space="preserve">
<g id="BG">
</g>
<g id="Base">
</g>
<g id="Icons_1_">
</g>
<g id="Dark">
	<path fill="#000101" d="M27,22.5L0,36v54l54,27l27-13.5v-54L27,22.5z M27,25.85l48.94,24.47L52.119,62.06L3.199,37.6L27,25.85z
		 M51,100.94L36.31,80.27L51,70.911V100.94z M3,40.85l48,24v1.33L26.02,82.17L3,48.86V40.85z M3,55.951L13.79,71.66L3,78.21V55.951z
		 M3,88.15v-5.28l13.09-7.93l8.86,12.68l8-5.169L51,107.82v4.33L3,88.15z"/>
</g>
<g id="Bright">
</g>
<g id="Plain_1_">
</g>
<g id="Icons">
</g>
</svg>
