<?xml version="1.0" encoding="utf-8"?>
<!-- Generator: Adobe Illustrator 16.0.0, SVG Export Plug-In . SVG Version: 6.00 Build 0)  -->
<!DOCTYPE svg PUBLIC "-//W3C//DTD SVG 1.1//EN" "http://www.w3.org/Graphics/SVG/1.1/DTD/svg11.dtd">
<svg version="1.1" xmlns="http://www.w3.org/2000/svg" xmlns:xlink="http://www.w3.org/1999/xlink" x="0px" y="0px" width="117px"
	 height="126px" viewBox="0 0 117 126" enable-background="new 0 0 117 126" xml:space="preserve">
<g id="BG">
</g>
<g id="Base">
</g>
<g id="Icons_1_">
</g>
<g id="Dark">
	<path fill="#000101" d="M0.33,49.27v54l27,13.5l72-36v-18l-9-4.5l-9,4.5v-27l-27-13.5L0.33,49.27z M77.969,37.45l-48.93,24.47
		L5.4,50.1l48.93-24.47L77.969,37.45z M73.33,84.83l-16,8V56.721l16-8V84.83z M45,62.89l6.33-3.169V70.08L45,73.24V62.89z
		 M51.33,73.44v8.68L45,85.28V76.6L51.33,73.44z M51.33,95.83L45,99V88.63l6.33-3.16V95.83z M35.33,93.47L42,90.13v10.37l-6.67,3.33
		V93.47z M35.33,81.44L42,78.1v8.68l-6.67,3.34V81.44z M35.33,78.08V67.721L42,64.39v10.35L35.33,78.08z M81.33,66.12l8.99-4.49
		l5.63,2.83l-14.62,7.31V66.12z M3.33,52.42l24,12v49l-24-12V52.42z"/>
</g>
<g id="Bright">
</g>
<g id="Plain_1_">
</g>
<g id="Icons">
</g>
</svg>
