<?xml version="1.0" encoding="utf-8"?>
<!-- Generator: Adobe Illustrator 16.0.0, SVG Export Plug-In . SVG Version: 6.00 Build 0)  -->
<!DOCTYPE svg PUBLIC "-//W3C//DTD SVG 1.1//EN" "http://www.w3.org/Graphics/SVG/1.1/DTD/svg11.dtd">
<svg version="1.1" xmlns="http://www.w3.org/2000/svg" xmlns:xlink="http://www.w3.org/1999/xlink" x="0px" y="0px" width="126px"
	 height="126px" viewBox="0 0 126 126" enable-background="new 0 0 126 126" xml:space="preserve">
<g id="BG">
</g>
<g id="Base">
</g>
<g id="Icons_1_">
</g>
<g id="Dark">
	<path fill="#000101" d="M54,49.5H0L27,90l54,27l27-13.5v-27L54,49.5z M101.29,76.5L81,86.649l-9.8-4.899l20.3-10.14L101.29,76.5z
		 M84.78,68.25L64.5,78.399L33.71,63L54,52.85L84.78,68.25z M18.699,52.5H48l-17.65,8.83L15.699,54L18.699,52.5z M27,84.59
		L12.35,62.61V55.68L27,63V84.59z M61.5,103.899L30,88.149V64.5l31.5,15.75V103.899z M81,113.649l-13.5-6.75V83.25L81,90V113.649z"
		/>
</g>
<g id="Bright">
</g>
<g id="Plain_1_">
</g>
<g id="Icons">
</g>
</svg>
