<?xml version="1.0" encoding="utf-8"?>
<!-- Generator: Adobe Illustrator 16.0.0, SVG Export Plug-In . SVG Version: 6.00 Build 0)  -->
<!DOCTYPE svg PUBLIC "-//W3C//DTD SVG 1.1//EN" "http://www.w3.org/Graphics/SVG/1.1/DTD/svg11.dtd">
<svg version="1.1" xmlns="http://www.w3.org/2000/svg" xmlns:xlink="http://www.w3.org/1999/xlink" x="0px" y="0px" width="117px"
	 height="126px" viewBox="0 0 117 126" enable-background="new 0 0 117 126" xml:space="preserve">
<g id="BG">
</g>
<g id="Base">
</g>
<g id="Icons_1_">
</g>
<g id="Dark">
	<path fill="#000101" d="M0,49.5v54L27,117l72-36V63l-9-4.5L81,63V36L54,22.5L0,49.5z M77.639,37.68l-48.93,24.47L5.07,50.33
		L54,25.86L77.639,37.68z M73,85.06l-16,8V56.951l16-8V85.06z M44.67,63.12L51,59.951V70.31l-6.33,3.16V63.12z M51,73.67v8.68
		l-6.33,3.16v-8.68L51,73.67z M51,96.06l-6.33,3.17V88.86L51,85.7V96.06z M35,93.7l6.67-3.34v10.37L35,104.06V93.7z M35,81.67
		l6.67-3.34v8.68L35,90.35V81.67z M35,78.31V67.951l6.67-3.331v10.35L35,78.31z M81,66.35l8.99-4.49l5.63,2.83L81,72V66.35z
		 M3,52.65l24,12v49l-24-12V52.65z"/>
</g>
<g id="Bright">
</g>
<g id="Plain_1_">
</g>
<g id="Icons">
</g>
</svg>
