<?xml version="1.0" encoding="utf-8"?>
<!-- Generator: Adobe Illustrator 16.0.0, SVG Export Plug-In . SVG Version: 6.00 Build 0)  -->
<!DOCTYPE svg PUBLIC "-//W3C//DTD SVG 1.1//EN" "http://www.w3.org/Graphics/SVG/1.1/DTD/svg11.dtd">
<svg version="1.1" xmlns="http://www.w3.org/2000/svg" xmlns:xlink="http://www.w3.org/1999/xlink" x="0px" y="0px" width="99px"
	 height="126px" viewBox="0 0 99 126" enable-background="new 0 0 99 126" xml:space="preserve">
<g id="BG">
</g>
<g id="Base">
</g>
<g id="Icons_1_">
</g>
<g id="Dark">
	<path fill="#000101" d="M45,79.72L20.25,67.621V57.25L45,69.362V79.72z M18,66.25l-9.361-4.69V51.22L18,55.9V66.25z M16.289,62.54
		l-2.271-3.65l2.102-1.27l-0.521-0.85l-2.106,1.279l-2.282-3.659l-0.851,0.529l2.271,3.641l-2.111,1.279l0.522,0.86l2.119-1.29
		l2.278,3.66L16.289,62.54z M32.75,90.34v0.16l12.41,6.17v-13.5L32.75,77V90.34z M45.16,99.482L8.629,81.22v3.421l36.531,18.27
		V99.482z M81,49.5v54L54,117L0,90V36l27-13.5L81,49.5z M51,64.85l-48-24v47.3l48,24V64.85z M75.99,50.35L27,25.85L3.45,37.72
		l49,24.5L75.99,50.35z M29.881,77.84L8.629,67.22v3.35l21.252,10.62V77.84z M29.881,84.84L8.629,74.22v3.35l21.252,10.62V84.84z"/>
</g>
<g id="Bright">
</g>
<g id="Plain_1_">
</g>
<g id="Icons">
</g>
</svg>
