<?xml version="1.0" encoding="utf-8"?>
<!-- Generator: Adobe Illustrator 16.0.0, SVG Export Plug-In . SVG Version: 6.00 Build 0)  -->
<!DOCTYPE svg PUBLIC "-//W3C//DTD SVG 1.1//EN" "http://www.w3.org/Graphics/SVG/1.1/DTD/svg11.dtd">
<svg version="1.1" xmlns="http://www.w3.org/2000/svg" xmlns:xlink="http://www.w3.org/1999/xlink" x="0px" y="0px" width="126px"
	 height="126px" viewBox="0 0 126 126" enable-background="new 0 0 126 126" xml:space="preserve">
<g id="BG">
</g>
<g id="Base">
</g>
<g id="Icons_1_">
</g>
<g id="Dark">
	<path fill="#000101" d="M36,9v36L0,27v72l36,18l72-36V45L36,9z M36,113.62l-9-4.49V90L9,81v19.14l-6-3V31.85l33,16.48V113.62z
		 M39,13.85l33,16.46V63L39,46.5V13.85z M46,98.5v-9l16-8l0.03,9L46,98.5z M80,81.5l-16,8v-9l16-8V81.5z M98,72.5l-16,8v-9l16-8
		V72.5z"/>
</g>
<g id="Bright">
</g>
<g id="Plain_1_">
</g>
<g id="Icons">
</g>
</svg>
