<?xml version="1.0" encoding="utf-8"?>
<!-- Generator: Adobe Illustrator 16.0.0, SVG Export Plug-In . SVG Version: 6.00 Build 0)  -->
<!DOCTYPE svg PUBLIC "-//W3C//DTD SVG 1.1//EN" "http://www.w3.org/Graphics/SVG/1.1/DTD/svg11.dtd">
<svg version="1.1" xmlns="http://www.w3.org/2000/svg" xmlns:xlink="http://www.w3.org/1999/xlink" x="0px" y="0px" width="117px"
	 height="126px" viewBox="0 0 117 126" enable-background="new 0 0 117 126" xml:space="preserve">
<g id="BG">
</g>
<g id="Base">
</g>
<g id="Icons_1_">
</g>
<g id="Dark">
	<path fill="#000101" d="M45,22.5L18,36v31.5L9,63l-9,4.5V81l71.79,35.93V116.9L72,117l27-13.5v-54L45,22.5z M69,112.15l-66-33
		V68.984L21,78V40.85l48,24V112.15z M69.711,62.15L20.779,37.682L44.42,25.861L93.35,50.33L69.711,62.15z M54.332,73.47L48,70.311
		V59.951l6.332,3.169V73.47z M64,67.951l-6.668-3.331v10.35L64,78.311V67.951z M64,81.67l-6.668-3.34v8.68L64,90.351V81.67z
		 M54.332,76.83L48,73.67v8.68l6.332,3.159V76.83z M64,93.7l-6.668-3.339v10.37l6.668,3.33V93.7z M54.332,88.861L48,85.7v10.36
		l6.332,3.17V88.861z M26,48.95v36.11l16,8V56.95L26,48.95z"/>
</g>
<g id="Bright">
</g>
<g id="Plain_1_">
</g>
<g id="Icons">
</g>
</svg>
