<?xml version="1.0" encoding="utf-8"?>
<!-- Generator: Adobe Illustrator 16.0.0, SVG Export Plug-In . SVG Version: 6.00 Build 0)  -->
<!DOCTYPE svg PUBLIC "-//W3C//DTD SVG 1.1//EN" "http://www.w3.org/Graphics/SVG/1.1/DTD/svg11.dtd">
<svg version="1.1" xmlns="http://www.w3.org/2000/svg" xmlns:xlink="http://www.w3.org/1999/xlink" x="0px" y="0px" width="90px"
	 height="126px" viewBox="0 0 90 126" enable-background="new 0 0 90 126" xml:space="preserve">
<g id="BG">
</g>
<g id="Base">
</g>
<g id="Icons_1_">
</g>
<g id="Dark">
	<g>
		<path fill="#000101" d="M63,90V36L27,18L9,27l18,9.002V90L9,99l36,18l36-18L63,90z M27,21.35l32.65,16.33L48.36,43.32H48.35
			L15.699,27L27,21.35z M30,37.502l18.35,9.177L60,40.85v63.98l-30-15V37.502z M45,113.65L15.699,99l12.98-6.49l29.289,14.65
			L45,113.65z M63,104.65v-11.3L74.3,99L63,104.65z"/>
	</g>
</g>
<g id="Bright">
</g>
<g id="Plain_1_">
</g>
<g id="Icons">
</g>
</svg>
