<?xml version="1.0" encoding="utf-8"?>
<!-- Generator: Adobe Illustrator 16.0.0, SVG Export Plug-In . SVG Version: 6.00 Build 0)  -->
<!DOCTYPE svg PUBLIC "-//W3C//DTD SVG 1.1//EN" "http://www.w3.org/Graphics/SVG/1.1/DTD/svg11.dtd">
<svg version="1.1" xmlns="http://www.w3.org/2000/svg" xmlns:xlink="http://www.w3.org/1999/xlink" x="0px" y="0px" width="90px"
	 height="126px" viewBox="0 0 90 126" enable-background="new 0 0 90 126" xml:space="preserve">
<g id="BG">
</g>
<g id="Base">
</g>
<g id="Icons_1_">
</g>
<g id="Dark">
	<g>
		<path fill="#000101" d="M54,89.986v-54l-36-18l-18,9l18,9.002v53.998l-18,9l36,18l36-18L54,89.986z M18,21.336l32.65,16.33
			l-11.29,5.641H39.35l-32.65-16.32L18,21.336z M21,37.488l18.35,9.177L51,40.836v63.98l-30-15V37.488z M36,113.636L6.699,98.986
			l12.98-6.49l29.289,14.65L36,113.636z M54,104.636v-11.3l11.3,5.65L54,104.636z"/>
	</g>
</g>
<g id="Bright">
</g>
<g id="Plain_1_">
</g>
<g id="Icons">
</g>
</svg>
