<?xml version="1.0" encoding="utf-8"?>
<!-- Generator: Adobe Illustrator 16.0.0, SVG Export Plug-In . SVG Version: 6.00 Build 0)  -->
<!DOCTYPE svg PUBLIC "-//W3C//DTD SVG 1.1//EN" "http://www.w3.org/Graphics/SVG/1.1/DTD/svg11.dtd">
<svg version="1.1" xmlns="http://www.w3.org/2000/svg" xmlns:xlink="http://www.w3.org/1999/xlink" x="0px" y="0px" width="99px"
	 height="126px" viewBox="0 0 99 126" enable-background="new 0 0 99 126" xml:space="preserve">
<g id="BG">
</g>
<g id="Base">
</g>
<g id="Icons_1_">
</g>
<g id="Dark">
	<path fill="#000101" d="M54,22.358l-54,27v54l27,13.5l54-27v-54L54,22.358z M54,25.708l23.8,11.75l-48.92,24.46L5.059,50.178
		L54,25.708z M3,101.498v-48.99l24,11.82v49.029L3,101.498z M77.27,57.119L67.21,71.518l10.06,5.94v4.64L64.91,74.798l-8.861,12.679
		l-8-5.17L30.3,106.928v-6.831l14.39-19.97L30.3,70.829v-4.761l24.679,15.96L77.27,50.139V57.119z"/>
	<text transform="matrix(1 0 0 1 -234 -18)" fill="#F80071" font-family="'MyriadPro-Regular'" font-size="72">Private Use</text>
</g>
<g id="Bright">
</g>
<g id="Plain_1_">
</g>
<g id="Icons">
</g>
</svg>
