<?xml version="1.0" encoding="utf-8"?>
<!-- Generator: Adobe Illustrator 16.0.0, SVG Export Plug-In . SVG Version: 6.00 Build 0)  -->
<!DOCTYPE svg PUBLIC "-//W3C//DTD SVG 1.1//EN" "http://www.w3.org/Graphics/SVG/1.1/DTD/svg11.dtd">
<svg version="1.1" xmlns="http://www.w3.org/2000/svg" xmlns:xlink="http://www.w3.org/1999/xlink" x="0px" y="0px" width="99px"
	 height="126px" viewBox="0 0 99 126" enable-background="new 0 0 99 126" xml:space="preserve">
<g id="BG">
</g>
<g id="Base">
</g>
<g id="Icons_1_">
</g>
<g id="Dark">
	<g>
		<path fill="#000101" d="M54,24.632l-54,27v54l27,13.5l54-27v-54L54,24.632z M3,103.772v-48.95l24,12.109v48.94L3,103.772z
			 M56,97.802c-10.65,5.51-19.951,0.75-19.68-9.84c0.309-12.139,8.939-23.96,19.68-29.52c10.64-5.511,19.95-0.75,19.68,9.84
			C75.37,80.422,66.74,92.243,56,97.802z M28.549,64.352L5.01,52.482L54,27.982l23.549,11.87L28.549,64.352z"/>
		<path fill="#000101" d="M53.49,68.092c0.648,0.33,1.439,0.27,2.35-0.19c0.939-0.471,1.73-1.19,2.37-2.17
			c0.651-0.98,0.97-1.94,0.97-2.87c0-0.92-0.318-1.55-0.97-1.88c-0.64-0.339-1.431-0.271-2.37,0.19
			c-0.92,0.471-1.721,1.2-2.361,2.18c-0.648,0.979-0.979,1.93-0.979,2.85C52.5,67.132,52.83,67.762,53.49,68.092z"/>
		<path fill="#000101" d="M58.939,88.732c-0.1-0.4-0.17-1.88-0.17-4.42v-7.45c0-2,0.092-4.181,0.261-6.54
			c-0.21-0.01-0.311-0.021-0.521-0.031c-1.33,1.201-2.56,2.21-3.68,3.031c-1.131,0.83-2.79,1.899-5,3.241v1.659
			c1.689-0.829,2.689-1.229,2.979-1.18c0.13,0.021,0.23,0.161,0.29,0.42c0.13,0.57,0.19,3.141,0.19,7.72
			c0,3.33-0.08,5.44-0.21,6.311c-0.07,0.41-0.21,0.75-0.44,1c-0.241,0.259-1.171,0.85-2.81,1.79v1.62
			c1.609-0.86,3.46-1.82,5.568-2.87c2.441-1.22,4.691-2.32,6.771-3.3v-1.71c-1.521,0.7-2.49,1.06-2.88,1.06
			C59.119,89.092,59,88.961,58.939,88.732z"/>
	</g>
</g>
<g id="Bright">
</g>
<g id="Plain_1_">
</g>
<g id="Icons">
</g>
</svg>
