<?xml version="1.0" encoding="utf-8"?>
<!-- Generator: Adobe Illustrator 16.0.0, SVG Export Plug-In . SVG Version: 6.00 Build 0)  -->
<!DOCTYPE svg PUBLIC "-//W3C//DTD SVG 1.1//EN" "http://www.w3.org/Graphics/SVG/1.1/DTD/svg11.dtd">
<svg version="1.1" xmlns="http://www.w3.org/2000/svg" xmlns:xlink="http://www.w3.org/1999/xlink" x="0px" y="0px" width="99px"
	 height="126px" viewBox="0 0 99 126" enable-background="new 0 0 99 126" xml:space="preserve">
<g id="BG">
</g>
<g id="Base">
</g>
<g id="Icons_1_">
</g>
<g id="Dark">
	<path fill="#000101" d="M54,23.23l-54,27v54l27,13.5l54-27v-54L54,23.23z M54,26.58l23.8,11.75L28.88,62.79L5.059,51.05L54,26.58z
		 M3,102.37V53.38l24,11.82v49.029L3,102.37z M77.27,57.991L67.21,72.39l10.06,5.94v4.64L64.91,75.67L56.049,88.35l-8-5.17
		L30.3,107.8v-6.831L44.689,81L30.3,71.701V66.94L54.979,82.9L77.27,51.011V57.991z"/>
</g>
<g id="Bright">
</g>
<g id="Plain_1_">
</g>
<g id="Icons">
</g>
</svg>
