<?xml version="1.0" encoding="utf-8"?>
<!-- Generator: Adobe Illustrator 16.0.0, SVG Export Plug-In . SVG Version: 6.00 Build 0)  -->
<!DOCTYPE svg PUBLIC "-//W3C//DTD SVG 1.1//EN" "http://www.w3.org/Graphics/SVG/1.1/DTD/svg11.dtd">
<svg version="1.1" xmlns="http://www.w3.org/2000/svg" xmlns:xlink="http://www.w3.org/1999/xlink" x="0px" y="0px" width="99px"
	 height="126px" viewBox="0 0 99 126" enable-background="new 0 0 99 126" xml:space="preserve">
<g id="BG">
</g>
<g id="Base">
</g>
<g id="Icons_1_">
</g>
<g id="Dark">
	<g>
		<g>
			<path fill="#000101" d="M25,95.67c10.65,5.51,19.951,0.75,19.68-9.84C44.371,73.69,35.74,61.87,25,56.31
				c-10.641-5.511-19.951-0.75-19.68,9.84C5.629,78.29,14.26,90.111,25,95.67z M22.48,58.71c0.639-0.35,1.439-0.28,2.359,0.17
				c0.939,0.48,1.73,1.2,2.37,2.169c0.65,0.981,0.97,1.93,0.97,2.85c0,0.93-0.319,1.57-0.97,1.9c-0.64,0.35-1.431,0.28-2.37-0.19
				c-0.91-0.45-1.701-1.181-2.35-2.15c-0.66-0.99-0.99-1.95-0.99-2.88C21.5,59.66,21.83,59.04,22.48,58.71z M18.83,85.998
				c1.639,0.694,2.568,1.031,2.81,1.012c0.23-0.021,0.37-0.222,0.44-0.562c0.13-0.741,0.21-2.771,0.21-6.101
				c0-4.579-0.061-7.209-0.19-7.91c-0.06-0.318-0.16-0.557-0.29-0.71c-0.29-0.338-1.29-0.934-2.979-1.79v-1.659
				c2.21,0.863,3.869,1.447,5,1.746c1.12,0.295,2.35,0.512,3.68,0.639c0.21,0.218,0.311,0.33,0.521,0.548
				c-0.169,2.191-0.261,4.279-0.261,6.279v7.451c0,2.54,0.07,4.09,0.17,4.589c0.061,0.29,0.18,0.539,0.351,0.699
				c0.39,0.389,1.359,0.995,2.88,1.812v1.711c-2.08-1.096-4.33-2.238-6.771-3.453c-2.108-1.053-3.959-1.938-5.568-2.681V85.998z
				 M27,22.5L0,36v54l54,27l27-13.5v-54L27,22.5z M51,112.15l-48-24v-47.3l48,24V112.15z M52.45,62.22l-49-24.5L27,25.85l48.99,24.5
				L52.45,62.22z"/>
		</g>
	</g>
	<text transform="matrix(1 0 0 1 -117 -18)" fill="#F80071" font-family="'MyriadPro-Regular'" font-size="72">Private Use</text>
</g>
<g id="Bright">
</g>
<g id="Plain_1_">
</g>
<g id="Icons">
</g>
</svg>
