<?xml version="1.0" encoding="utf-8"?>
<!-- Generator: Adobe Illustrator 16.0.0, SVG Export Plug-In . SVG Version: 6.00 Build 0)  -->
<!DOCTYPE svg PUBLIC "-//W3C//DTD SVG 1.1//EN" "http://www.w3.org/Graphics/SVG/1.1/DTD/svg11.dtd">
<svg version="1.1" xmlns="http://www.w3.org/2000/svg" xmlns:xlink="http://www.w3.org/1999/xlink" x="0px" y="0px" width="90px"
	 height="126px" viewBox="0 0 90 126" enable-background="new 0 0 90 126" xml:space="preserve">
<g id="BG">
</g>
<g id="Base">
</g>
<g id="Icons_1_">
</g>
<g id="Dark">
	<path fill="#000101" d="M39.35,10.694L36,9.014l-36,18l36,18l-36,18v36l36,18l36-18l-36-18l36-18v-36L39.35,10.694z M6.71,27.014
		L36,12.364l32.65,16.33L39.35,43.334L6.71,27.014z M65.29,99.014L36,113.664v-29.3L65.29,99.014z M33,79.164v33l-30-15v-32.3
		l0.35-0.17l36-18L68.65,61.334L33,79.164z"/>
	<text transform="matrix(1 0 0 1 -216 -17.9858)" fill="#F80071" font-family="'MyriadPro-Regular'" font-size="72">Numbers 17-36</text>
</g>
<g id="Bright">
</g>
<g id="Plain_1_">
</g>
<g id="Icons">
</g>
</svg>
