<?xml version="1.0" encoding="utf-8"?>
<!-- Generator: Adobe Illustrator 16.0.0, SVG Export Plug-In . SVG Version: 6.00 Build 0)  -->
<!DOCTYPE svg PUBLIC "-//W3C//DTD SVG 1.1//EN" "http://www.w3.org/Graphics/SVG/1.1/DTD/svg11.dtd">
<svg version="1.1" xmlns="http://www.w3.org/2000/svg" xmlns:xlink="http://www.w3.org/1999/xlink" x="0px" y="0px" width="99px"
	 height="126px" viewBox="0 0 99 126" enable-background="new 0 0 99 126" xml:space="preserve">
<g id="BG">
</g>
<g id="Base">
</g>
<g id="Icons_1_">
</g>
<g id="Dark">
	<g>
		<path fill="#000101" d="M81,36.031V36L54,22.5l-54,27v54L27,117l0.21-0.1v0.02l54-27v-54L81,36.031z M27,113.65l-24-12v-49l24,12
			V113.65z M76.37,87.11l-44.53,22.27V81.7L76.37,59.43V87.11z M31.84,76.34V65.982L62.56,50.62v10.371L31.84,76.34z M76.37,54.07
			l-9.361,4.69v-10.35l9.361-4.68V54.07z M28.71,62.15L5.059,50.32L54,25.85L77.65,37.68L28.71,62.15z"/>
		<polygon fill="#000101" points="69.57,55.58 71.85,51.92 73.969,53.21 74.49,52.35 72.38,51.07 74.65,47.43 73.8,46.9 
			71.518,50.56 69.41,49.281 68.89,50.13 70.99,51.4 68.72,55.05 		"/>
		<polygon fill="#000101" points="72.37,84.57 72.37,81.22 35.84,99.482 35.84,102.832 35.84,102.911 72.37,84.641 		"/>
		<polygon fill="#000101" points="72.37,67.22 51.119,77.84 51.119,81.19 72.37,70.57 		"/>
		<polygon fill="#000101" points="72.37,74.22 51.119,84.84 51.119,88.19 72.37,77.57 		"/>
		<polygon fill="#000101" points="48.25,90.34 48.25,77 35.84,83.17 35.84,96.67 48.25,90.5 		"/>
	</g>
</g>
<g id="Bright">
</g>
<g id="Plain_1_">
</g>
<g id="Icons">
</g>
</svg>
