<?xml version="1.0" encoding="utf-8"?>
<!-- Generator: Adobe Illustrator 16.0.0, SVG Export Plug-In . SVG Version: 6.00 Build 0)  -->
<!DOCTYPE svg PUBLIC "-//W3C//DTD SVG 1.1//EN" "http://www.w3.org/Graphics/SVG/1.1/DTD/svg11.dtd">
<svg version="1.1" xmlns="http://www.w3.org/2000/svg" xmlns:xlink="http://www.w3.org/1999/xlink" x="0px" y="0px" width="72px"
	 height="126px" viewBox="0 0 72 126" enable-background="new 0 0 72 126" xml:space="preserve">
<g id="BG">
</g>
<g id="Base">
</g>
<g id="Icons_1_">
</g>
<g id="Dark">
	<path fill="#000101" d="M27,0L0,13.5v63.37L27,122l27-45.13V13.5L27,0z M27,3.35L48.969,14.34L27,25.32L5.03,14.34L27,3.35z
		 M25.5,27.92v12.97L3,29.64V16.67L25.5,27.92z M25.5,47.6v38.661L3,75.011V36.35L25.5,47.6z M4.99,79.36L25.5,89.621v14.939
		l-7.762-3.881L4.99,79.36z M36.259,100.68l-7.759,3.881V89.621L49.01,79.36L36.259,100.68z M28.5,47.6v-6.71L51,29.64v6.71
		L28.5,47.6z"/>
</g>
<g id="Bright">
</g>
<g id="Plain_1_">
</g>
<g id="Icons">
</g>
</svg>
